<svg width="131" height="24" viewBox="0 0 131 24" fill="none" xmlns="http://www.w3.org/2000/svg">
<mask id="mask0_1_106" style="mask-type:luminance" maskUnits="userSpaceOnUse" x="0" y="0" width="131" height="24">
<path d="M131 0H0V24H131V0Z" fill="white"/>
</mask>
<g mask="url(#mask0_1_106)">
<path d="M18.6596 2.02783V13.192C18.6596 17.9678 14.723 21.7144 10.1944 21.7144C5.66625 21.7144 1.73 17.9678 1.73 13.192V2.02783" stroke="black" stroke-width="3.015" stroke-linecap="round" stroke-linejoin="round"/>
<path d="M25.2634 21.7144V10.5502C25.2634 5.77447 29.2 2.02783 33.7285 2.02783C38.2567 2.02783 42.193 5.77447 42.193 10.5502V21.7144" stroke="black" stroke-width="3.015" stroke-linecap="round" stroke-linejoin="round"/>
<path d="M60.6903 2.2486C59.8776 2.10354 58.9885 2.02783 58.019 2.02783C52.6487 2.02783 48.295 6.49204 48.295 11.8628C48.295 17.2331 52.6487 21.7272 58.019 21.7272C63.0327 21.7272 66.5354 18.534 67.7237 14.3877" stroke="black" stroke-width="3.015" stroke-linecap="round" stroke-linejoin="round"/>
<path d="M80.2037 2.02753V21.7145" stroke="black" stroke-width="3.015" stroke-linecap="round" stroke-linejoin="round"/>
<path d="M86.5688 21.7144V10.5502C86.5688 5.77447 90.5047 2.02783 95.0332 2.02783C99.5614 2.02783 103.498 5.77447 103.498 10.5502V21.7144" stroke="black" stroke-width="3.015" stroke-linecap="round" stroke-linejoin="round"/>
<path d="M116.968 21.5061C117.781 21.6511 118.67 21.7268 119.64 21.7268C125.01 21.7269 129.364 17.263 129.364 11.8923C129.364 6.52157 125.01 2.02753 119.64 2.02751C114.626 2.02749 111.123 5.22036 109.935 9.36698" stroke="black" stroke-width="3.015" stroke-linecap="round" stroke-linejoin="round"/>
</g>
</svg>
