<svg width="77" height="77" viewBox="0 0 77 77" fill="none" xmlns="http://www.w3.org/2000/svg">
<path d="M7.38 30.75C7.38 28.7121 5.72791 27.06 3.69 27.06C1.65209 27.06 0 28.7121 0 30.75H7.38ZM33.21 76.26C35.2479 76.26 36.9 74.6079 36.9 72.57C36.9 70.5321 35.2479 68.88 33.21 68.88V76.26ZM0 30.75C0 32.7879 1.65209 34.44 3.69 34.44C5.72791 34.44 7.38 32.7879 7.38 30.75H0ZM33.21 7.38C35.2479 7.38 36.9 5.72791 36.9 3.69C36.9 1.65209 35.2479 0 33.21 0V7.38ZM3.69 27.06C1.65209 27.06 0 28.7121 0 30.75C0 32.7879 1.65209 34.44 3.69 34.44V27.06ZM33.21 34.44C35.2479 34.44 36.9 32.7879 36.9 30.75C36.9 28.7121 35.2479 27.06 33.21 27.06V34.44ZM29.52 30.75C29.52 32.7879 31.1721 34.44 33.21 34.44C35.2479 34.44 36.9 32.7879 36.9 30.75H29.52ZM36.9 3.69C36.9 1.65209 35.2479 0 33.21 0C31.1721 0 29.52 1.65209 29.52 3.69H36.9ZM36.9 30.75C36.9 28.7121 35.2479 27.06 33.21 27.06C31.1721 27.06 29.52 28.7121 29.52 30.75H36.9ZM29.52 47.97C29.52 50.0079 31.1721 51.66 33.21 51.66C35.2479 51.66 36.9 50.0079 36.9 47.97H29.52ZM33.21 68.88C31.1721 68.88 29.52 70.5321 29.52 72.57C29.52 74.6079 31.1721 76.26 33.21 76.26V68.88ZM76.26 47.97C76.26 45.9321 74.6079 44.28 72.57 44.28C70.5321 44.28 68.88 45.9321 68.88 47.97H76.26ZM29.52 72.57C29.52 74.6079 31.1721 76.26 33.21 76.26C35.2479 76.26 36.9 74.6079 36.9 72.57H29.52ZM36.9 47.97C36.9 45.9321 35.2479 44.28 33.21 44.28C31.1721 44.28 29.52 45.9321 29.52 47.97H36.9ZM33.21 0C31.1721 0 29.52 1.65209 29.52 3.69C29.52 5.72791 31.1721 7.38 33.21 7.38V0ZM68.88 47.97C68.88 50.0079 70.5321 51.66 72.57 51.66C74.6079 51.66 76.26 50.0079 76.26 47.97H68.88ZM72.57 51.66C74.6079 51.66 76.26 50.0079 76.26 47.97C76.26 45.9321 74.6079 44.28 72.57 44.28V51.66ZM33.21 44.28C31.1721 44.28 29.52 45.9321 29.52 47.97C29.52 50.0079 31.1721 51.66 33.21 51.66V44.28ZM0 30.75V52.89H7.38V30.75H0ZM0 52.89C0 65.7971 10.4631 76.26 23.37 76.26V68.88C14.5389 68.88 7.38 61.7209 7.38 52.89H0ZM23.37 76.26H33.21V68.88H23.37V76.26ZM7.38 30.75V23.37H0V30.75H7.38ZM7.38 23.37C7.38 14.5389 14.5389 7.38 23.37 7.38V0C10.4631 0 0 10.4631 0 23.37H7.38ZM23.37 7.38H33.21V0H23.37V7.38ZM3.69 34.44H33.21V27.06H3.69V34.44ZM36.9 30.75V3.69H29.52V30.75H36.9ZM29.52 30.75V47.97H36.9V30.75H29.52ZM33.21 76.26H52.89V68.88H33.21V76.26ZM52.89 76.26C65.7971 76.26 76.26 65.7971 76.26 52.89H68.88C68.88 61.7209 61.7209 68.88 52.89 68.88V76.26ZM76.26 52.89V47.97H68.88V52.89H76.26ZM36.9 72.57V47.97H29.52V72.57H36.9ZM33.21 7.38H52.89V0H33.21V7.38ZM52.89 7.38C61.7209 7.38 68.88 14.5389 68.88 23.37H76.26C76.26 10.4631 65.7971 0 52.89 0V7.38ZM68.88 23.37V47.97H76.26V23.37H68.88ZM72.57 44.28H33.21V51.66H72.57V44.28Z" fill="#202020"/>
</svg>
