<svg width="71" height="77" viewBox="0 0 71 77" fill="none" xmlns="http://www.w3.org/2000/svg">
<path d="M31.4352 1.61761C33.7161 -0.539202 37.2839 -0.539202 39.5648 1.61761L68.2221 28.7166C69.9954 30.3933 71 32.7261 71 35.1666V68.1235C71 73.0257 67.0264 77 62.125 77H50.2917C45.3901 77 41.4167 73.0257 41.4167 68.1235V53.3294C41.4167 51.6954 40.0922 50.3707 38.4583 50.3707H32.5417C30.9078 50.3707 29.5833 51.6954 29.5833 53.3294V68.1235C29.5833 73.0257 25.6099 77 20.7083 77H8.875C3.97346 77 0 73.0257 0 68.1235V35.1666C0 32.7261 1.00465 30.3933 2.77776 28.7166L31.4352 1.61761ZM35.5 5.91767L6.84257 33.0166C6.25155 33.5755 5.91667 34.3531 5.91667 35.1666V68.1235C5.91667 69.7574 7.24117 71.0823 8.875 71.0823H20.7083C22.3422 71.0823 23.6667 69.7574 23.6667 68.1235V53.3294C23.6667 48.4272 27.6401 44.453 32.5417 44.453H38.4583C43.3599 44.453 47.3333 48.4272 47.3333 53.3294V68.1235C47.3333 69.7574 48.6581 71.0823 50.2917 71.0823H62.125C63.7586 71.0823 65.0833 69.7574 65.0833 68.1235V35.1666C65.0833 34.3531 64.7484 33.5755 64.1574 33.0166L35.5 5.91767Z" fill="#202020"/>
</svg>
