<svg width="79" height="77" viewBox="0 0 79 77" fill="none" xmlns="http://www.w3.org/2000/svg">
<path d="M0 38.3963C0 39.887 1.20822 41.0952 2.69888 41.0952H54.1032L44.0765 51.1062C43.0252 52.1575 43.0252 53.8678 44.0765 54.9191C44.5943 55.4369 45.2847 55.7037 45.9752 55.7037C46.6656 55.7037 47.356 55.4369 47.8738 54.9191L62.4823 40.3106C63.5336 39.2593 63.5336 37.549 62.4823 36.4977L47.8738 21.8892C46.8225 20.8379 45.1121 20.8379 44.0608 21.8892C43.0095 22.9405 43.0095 24.6508 44.0608 25.7021L54.0718 35.7131H2.69888C1.20822 35.7131 0 36.9057 0 38.3963Z" fill="#202020"/>
<path d="M62.1998 76.7769C71.0967 76.7769 78.3146 69.5433 78.3146 60.6464V16.1305C78.3146 7.23363 71.081 0 62.1998 0H17.6839C8.78703 0 1.56909 7.23363 1.56909 16.1305V25.2785C1.56909 26.7692 2.77731 27.9617 4.25228 27.9617C5.74295 27.9617 6.95117 26.7535 6.95117 25.2785V16.1305C6.95117 10.215 11.7684 5.38207 17.6839 5.38207H62.1998C68.1154 5.38207 72.9326 10.1993 72.9326 16.1305V60.6464C72.9326 66.562 68.1154 71.3949 62.1998 71.3949H17.6839C11.7684 71.3949 6.95117 66.5777 6.95117 60.6464V51.6083C6.95117 50.1176 5.74295 48.9094 4.25228 48.9094C2.76162 48.9094 1.56909 50.1176 1.56909 51.6083V60.6464C1.56909 69.5433 8.80273 76.7769 17.6839 76.7769H62.1998Z" fill="#202020"/>
</svg>
